HIERARCHY
ROOT Hips
{
	OFFSET -1.184550 1.212001 -92.605789
	CHANNELS 6 Xposition Yposition Zposition Zrotation Xrotation Yrotation
	JOINT Spine
	{
		OFFSET 0.107134 -3.983562 -20.828293
		CHANNELS 3 Zrotation Xrotation Yrotation
		JOINT Spine1
		{
			OFFSET 0.052365 0.528502 -10.119110
			CHANNELS 3 Zrotation Xrotation Yrotation
			JOINT Spine2
			{
				OFFSET 0.041914 0.426318 -9.193100
				CHANNELS 3 Zrotation Xrotation Yrotation
				JOINT Neck
				{
					OFFSET 0.274293 2.659680 -20.339844
					CHANNELS 3 Zrotation Xrotation Yrotation
					JOINT Head
					{
						OFFSET 0.058048 0.582626 -9.746796
						CHANNELS 3 Zrotation Xrotation Yrotation
						End Site
						{
							OFFSET 0.000589 -0.011348 -0.099350
						}
					}
				}
				JOINT LeftShoulder
				{
					OFFSET 4.718655 4.351630 -10.315430
					CHANNELS 3 Zrotation Xrotation Yrotation
					JOINT LeftArm
					{
						OFFSET 9.498989 -5.100964 1.098145
						CHANNELS 3 Zrotation Xrotation Yrotation
						JOINT LeftForeArm
						{
							OFFSET 23.845404 -5.963766 13.075882
							CHANNELS 3 Zrotation Xrotation Yrotation
							JOINT LeftHand
							{
								OFFSET 23.388580 4.235811 15.412743
								CHANNELS 3 Zrotation Xrotation Yrotation
								End Site
								{
									OFFSET 0.049503 0.027075 -0.082558
								}
							}
						}
					}
				}
				JOINT RightShoulder
				{
					OFFSET -4.420938 4.378176 -10.435394
					CHANNELS 3 Zrotation Xrotation Yrotation
					JOINT RightArm
					{
						OFFSET -9.496534 -5.105543 1.102051
						CHANNELS 3 Zrotation Xrotation Yrotation
						JOINT RightForeArm
						{
							OFFSET -23.845407 -5.963773 13.075897
							CHANNELS 3 Zrotation Xrotation Yrotation
							JOINT RightHand
							{
								OFFSET -23.388588 4.235806 15.412758
								CHANNELS 3 Zrotation Xrotation Yrotation
								End Site
								{
									OFFSET -0.049503 0.027075 -0.082558
								}
							}
						}
					}
				}
			}
		}
	}
	JOINT LeftUpLeg
	{
		OFFSET 8.239366 -3.086775 -6.172241
		CHANNELS 3 Zrotation Xrotation Yrotation
		JOINT LeftLeg
		{
			OFFSET -0.000001 3.391717 44.241604
			CHANNELS 3 Zrotation Xrotation Yrotation
			JOINT LeftFoot
			{
				OFFSET -0.000006 -4.391884 44.310764
				CHANNELS 3 Zrotation Xrotation Yrotation
				JOINT LeftToeBase
				{
					OFFSET -0.000001 10.427942 9.064467
					CHANNELS 3 Zrotation Xrotation Yrotation
					End Site
					{
						OFFSET 0.000000 0.003176 -0.099948
					}
				}
			}
		}
	}
	JOINT RightUpLeg
	{
		OFFSET -8.176001 -3.084340 -6.257103
		CHANNELS 3 Zrotation Xrotation Yrotation
		JOINT RightLeg
		{
			OFFSET -0.000006 3.391717 44.241608
			CHANNELS 3 Zrotation Xrotation Yrotation
			JOINT RightFoot
			{
				OFFSET -0.000005 -4.391863 44.310661
				CHANNELS 3 Zrotation Xrotation Yrotation
				JOINT RightToeBase
				{
					OFFSET -0.000001 10.428267 9.064082
					CHANNELS 3 Zrotation Xrotation Yrotation
					End Site
					{
						OFFSET 0.000000 0.003173 -0.099948
					}
				}
			}
		}
	}
}
MOTION
Frames: 8
Frame Time: 0.041667
-2.732861 59.473854 -20.620605 -0.007235666666666667 -0.009300333333333334 0.09997666666666666 0.000000 -0.000001 0.000000 0.000000 -0.000000 0.000000 0.000000 -0.000000 0.000000 -0.000000 -0.000000 -0.000000 -0.000000 -0.000001 -0.000000 -0.000004 -0.000002 0.000001 0.000015 -0.000003 -0.000002 -0.000009 -0.000010 -0.000004 0.000001 -0.000001 -0.000001 0.000012 0.000004 -0.000000 -0.000007 -0.000001 -0.000002 -0.000016 -0.000006 0.000005 0.000005 -0.000000 0.000001 0.000014 0.000009 -0.000202 -0.000015 -0.000026 0.000202 -0.000000 0.000000 -0.000000 -0.000000 0.000002 -0.000000 0.000005 0.000008 -0.000013 -0.000001 -0.000012 0.000013 -0.000000 -0.000003 -0.000000 -0.000000 0.000000 -0.000000 
-2.479445 58.684994 -20.421249 -0.003447 -0.010576 0.08532333333333332 0.000000 -0.000000 0.000000 -0.000000 -0.000001 0.000001 -0.000001 0.000001 -0.000001 0.000000 0.000001 -0.000002 9.011461 0.064200 0.002833 34.833586 2.035048 -9.110777 -64.723576 -25.228113 15.188655 -49.684715 -47.973596 -9.786890 -0.000000 -0.000001 -0.000001 -27.549990 2.649689 -10.620166 48.002682 -27.585006 -8.814225 62.831778 -47.274799 -0.346066 0.000002 0.000000 0.000000 -0.031664 -34.375943 -0.152782 -1.425012 20.839749 0.141419 -0.000002 0.000000 0.000002 -0.000003 0.000001 0.000000 -1.251272 11.459918 -0.129223 -3.144801 11.435014 0.311562 0.000000 0.000002 0.000000 0.000001 0.000004 0.000002 
-2.186151 57.824421 -20.160065 -0.003633666666666667 -0.010635333333333335 0.08611033333333333 0.000000 -0.000000 -0.000000 0.000001 -0.000001 -0.000000 -0.000001 -0.000000 0.000000 -0.000000 -0.000001 0.000000 7.546874 -3.060387 0.012329 34.379573 2.236396 -10.213674 -64.846977 -26.455191 15.524832 -63.531189 -48.330548 0.710402 0.000003 -0.000003 0.000001 -29.105608 3.231180 -9.511646 47.016809 -27.230938 -8.234542 76.657030 -43.424147 -7.991750 0.000003 0.000000 0.000004 -1.014460 -35.814616 -0.231644 -3.622849 25.353370 0.359028 -0.000001 -0.000002 -0.000000 0.000000 -0.000000 -0.000000 -1.274462 13.261790 -0.140114 -1.944095 18.213779 0.192680 0.000001 -0.000002 0.000002 0.000000 0.000005 0.000000 
-1.813322 56.735603 -19.874413 -0.00366 -0.010607 0.08611166666666666 -0.000000 0.000001 0.000000 -0.000000 -0.000002 0.000001 0.000001 -0.000001 0.000000 0.000001 -0.000000 -0.000000 7.648742 -3.063507 0.012271 34.303303 2.216719 -9.934785 -64.700620 -26.207156 15.414482 -63.891529 -48.263384 0.940939 -0.000007 -0.000000 0.000004 -29.178561 3.199544 -9.288669 46.998156 -27.283604 -8.231945 76.604349 -43.191647 -7.801118 0.000000 -0.000001 0.000001 -0.849171 -35.536173 -0.218258 -3.447243 25.043049 0.341657 -0.000002 -0.000002 -0.000000 -0.000005 0.000002 -0.000004 -1.353441 12.959724 -0.144667 -1.779967 18.207500 0.176431 0.000002 0.000003 0.000002 0.000001 0.000003 0.000001 
-1.358823 55.388130 -19.511528 -0.0034883333333333333 -0.011062333333333334 0.08680733333333333 0.000000 -0.000000 0.000000 -0.000001 0.000000 -0.000000 -0.000000 0.000001 0.000000 0.000000 0.000001 0.000000 6.567938 1.250533 0.001473 34.582395 2.667105 -11.355954 -66.694031 -22.759246 15.457299 -68.121097 -43.129506 1.864377 0.000001 0.000006 0.000002 -27.268106 3.831936 -13.174461 48.490371 -16.832398 -9.987378 83.751226 -40.673203 -10.318579 0.000002 0.000000 -0.000001 -2.750128 -31.725754 -0.350193 -4.113218 20.137049 0.407515 -0.000000 0.000000 0.000001 -0.000003 -0.000001 -0.000000 0.696779 16.874740 -0.006910 -3.499294 14.613224 0.346639 -0.000000 0.000000 0.000001 0.000000 0.000006 0.000001 
-0.822884 53.726990 -19.011147 -0.0032516666666666666 -0.011214666666666666 0.086067 0.000000 -0.000000 0.000003 0.000000 0.000000 0.000001 0.000000 -0.000000 -0.000001 0.000001 -0.000000 -0.000004 -2.201627 -6.571074 0.024639 32.631946 2.974389 -3.449252 -71.707472 -23.786023 17.160056 -81.727441 -50.305965 18.110487 0.000004 -0.000006 0.000002 -32.516031 4.181372 -5.433001 46.542005 -14.348014 -10.285425 109.548926 -44.439888 -50.202935 0.000000 -0.000002 0.000001 -5.611716 -33.652417 -0.569787 -5.600757 30.408760 0.554402 0.000001 0.000003 0.000002 0.000002 0.000001 0.000003 -1.931865 24.917358 -0.244982 -0.607030 22.459853 0.060202 0.000003 -0.000005 -0.000001 0.000001 -0.000001 0.000000 
-0.245596 51.771305 -18.269547 -0.003682 -0.011151666666666666 0.08676933333333332 -0.000001 -0.000001 -0.000000 0.000000 -0.000000 0.000000 0.000001 0.000000 -0.000003 0.000001 0.000001 -0.000002 -1.659806 -4.814286 0.019324 30.537223 3.471970 4.531136 -67.368526 -14.083917 13.848753 -71.514075 -50.181994 7.943369 0.000005 -0.000001 0.000001 -35.657682 4.377721 0.460204 36.955715 -24.852371 -4.197474 159.087687 -1.587650 -72.007543 0.000005 0.000001 0.000005 -5.397837 -34.361398 -0.559883 -4.355971 24.251171 0.431514 -0.000002 0.000000 -0.000001 -0.000002 -0.000001 -0.000000 -1.794103 22.861704 -0.226978 -1.668901 17.382401 0.165427 -0.000002 -0.000003 0.000001 -0.000002 -0.000001 0.000002 
0.318759 49.591171 -17.192039 -0.0034909999999999997 -0.010635 0.08738266666666666 -0.000000 -0.000000 0.000001 0.000000 -0.000000 0.000002 -0.000000 -0.000001 0.000000 0.000000 0.000000 -0.000000 1.023996 -5.979928 0.023007 31.275057 2.703542 -1.594843 -72.847977 -13.983431 14.664860 -90.095953 -43.329429 18.192904 -0.000002 -0.000000 -0.000000 -31.625487 3.841712 -5.147794 46.514732 -15.167425 -10.316922 88.648363 -58.873956 -39.922428 -0.000004 0.000000 0.000002 -1.289825 -35.150004 -0.246433 -2.768771 26.110700 0.274509 -0.000001 0.000002 -0.000001 0.000000 -0.000001 -0.000003 -5.500892 18.980264 -0.490969 0.753255 23.327157 -0.074615 0.000000 0.000002 0.000001 0.000000 0.000000 -0.000000 
